<?xml version="1.0" encoding="utf-8"?>
<!-- Generator: Adobe Illustrator 17.0.0, SVG Export Plug-In . SVG Version: 6.00 Build 0)  -->
<!DOCTYPE svg PUBLIC "-//W3C//DTD SVG 1.1//EN" "http://www.w3.org/Graphics/SVG/1.1/DTD/svg11.dtd">
<svg version="1.1" id="Capa_1" xmlns="http://www.w3.org/2000/svg" xmlns:xlink="http://www.w3.org/1999/xlink" x="0px" y="0px"
	 width="3530.028px" height="1236.447px" viewBox="0 0 3530.028 1236.447" enable-background="new 0 0 3530.028 1236.447"
	 xml:space="preserve">
<g>
	<path id="path2451" fill="#700056" d="M1322.321,745.959c0.123-0.316,3.914-5.873,8.425-12.349
		c8.071-11.587,8.24-11.78,10.546-12.058c10.338-1.249,13.419-1.84,18.857-3.622c11.923-3.906,20.628-9.438,30.359-19.293
		c18.67-18.909,25.365-38.315,37.198-107.819c1.317-7.734,3.59-20.916,5.053-29.294c3.372-19.318,6.222-35.671,10.721-61.517
		c1.963-11.278,4.748-27.228,6.189-35.445c1.441-8.217,5.005-28.649,7.92-45.405c5.898-33.896,9.173-52.65,11.713-67.082
		c0.936-5.317,2.648-15.072,3.806-21.677c8.552-48.81,17.598-74.916,35.288-101.833c19.53-29.717,52.314-56.272,85.7-69.417
		c23.291-9.17,43.722-13.096,71.354-13.709l15.404-0.342l-8.831,12.6l-8.831,12.6l-5.076,0.412
		c-23.15,1.878-44.938,16.234-58.765,38.719c-7.635,12.415-12.743,29.102-18.738,61.211c-2.623,14.047-9.365,52.981-9.365,54.08
		c0,0.905,2.579,0.994,33.047,1.133l33.047,0.151l-8.621,12.303l-8.62,12.303l-5.532,0.414
		c-28.273,2.118-44.912,14.229-53.482,38.931c-2.646,7.628-3.372,11.206-9.789,48.243c-2.931,16.917-6.877,39.59-8.769,50.385
		c-1.892,10.795-5.572,31.886-8.177,46.87c-6.017,34.609-7.638,42.821-11.156,56.537c-11.172,43.55-28.745,75.719-55.709,101.983
		c-29.242,28.482-64.115,45.066-107.152,50.955C1352.365,746.019,1321.978,746.843,1322.321,745.959z M790.279,569.996
		c-25.229-0.795-55.649-2.874-64.652-4.417c-28.04-4.807-44.641-21.146-49.855-49.069c-4.382-23.47,0.462-66.808,11.209-100.281
		c8.123-25.3,17.336-40.157,33.551-54.107c25.529-21.962,64.687-34.133,126.576-39.344c14.1-1.187,25.145-1.467,43.062-1.092
		c24.374,0.511,45.981,2.992,63.144,7.252c26.698,6.626,43.12,20.793,48.553,41.886c1.696,6.584,1.851,21.624,0.303,29.439
		c-2.353,11.878-6.4,23.275-11.096,31.243c-4.249,7.211-13.851,16.922-21.942,22.192c-24.339,15.852-56.769,22.709-117.924,24.932
		c-27.022,0.982-47.77,0.552-73.116-1.517c-6.541-0.534-12.042-0.821-12.226-0.637c-0.728,0.728-0.892,13.294-0.238,18.26
		c2.023,15.361,7.393,26.575,16.064,33.543c8.859,7.12,15.217,9.089,35.583,11.023c13.078,1.241,55.968,1.768,73.186,0.899
		c21.102-1.065,48.045-3.72,59.466-5.859c1.611-0.302,2.994-0.484,3.073-0.404s-4.19,6.344-9.488,13.922l-9.632,13.777l-6.037,0.972
		C889.158,568.838,838.998,571.532,790.279,569.996z M825.432,450.48c29.53-1.653,52.066-6.464,64.619-13.793
		c9.993-5.835,17.525-14.416,23.581-26.865c3.921-8.06,5.113-13.208,5.166-22.301c0.052-9.014-0.803-12.908-4.423-20.14
		c-6.861-13.708-19.445-19.545-43.974-20.399c-12.154-0.423-17.877,0.317-30.615,3.959c-33.465,9.567-52.172,32.234-64.765,78.47
		c-2.888,10.603-4.751,19.481-4.201,20.019c0.23,0.225,5.56,0.593,11.843,0.817c6.283,0.224,11.534,0.505,11.669,0.625
		C794.835,451.318,814.994,451.065,825.432,450.48z M1743.2,569.991c-24.164-0.952-54.522-2.974-61.809-4.117
		c-30.136-4.727-47.27-22.221-51.828-52.918c-3.065-20.638,0.91-58.872,9.14-87.931c8.39-29.623,17.85-46.529,34.323-61.338
		c26.387-23.721,68.494-36.581,135.792-41.475c10.539-0.766,42.778-0.772,53.021-0.01c17.119,1.274,38.001,4.493,49.244,7.59
		c20.046,5.522,34.329,16.153,41.352,30.779c3.083,6.419,4.151,10.376,5.034,18.639c1.507,14.106-2.935,35.474-10.193,49.03
		c-10.678,19.945-32.413,34.307-63.338,41.854c-23.048,5.625-60.873,8.923-102.365,8.926c-20.328,0.001-31.207-0.42-49.09-1.902
		c-6.538-0.542-12.046-0.826-12.24-0.632c-0.194,0.194-0.472,3.457-0.617,7.251c-0.802,20.919,6.795,38.865,20.039,47.337
		c7.311,4.677,14.553,6.537,32.242,8.284c15.297,1.51,69.958,1.524,88.174,0.023c18.134-1.495,42.899-4.406,46.43-5.457
		c0.564-0.168,1.025-0.17,1.025-0.005c0,0.376-19.353,27.9-19.618,27.9c-0.106,0-4.634,0.645-10.061,1.434
		c-18.623,2.707-42.269,5.005-63.768,6.197C1799.487,570.258,1758.037,570.575,1743.2,569.991z M1791.827,449.644
		c25.579-2.465,44.227-7.389,55.295-14.601c10.591-6.901,21.147-21.924,24.747-35.219c1.846-6.815,1.87-18.147,0.052-24.495
		c-5.523-19.29-18.832-27.332-46.915-28.348c-10.095-0.365-15.45,0.128-24.591,2.264c-34.408,8.04-54.359,27.97-67.059,66.983
		c-4.497,13.815-9.069,32.308-8.195,33.151c0.254,0.245,5.603,0.63,11.886,0.856s11.556,0.544,11.717,0.707
		C1749.347,451.531,1782.671,450.527,1791.827,449.644z M384.27,565.706c0-0.117,1.041-6.115,2.313-13.329
		c1.272-7.214,4.18-23.794,6.461-36.844c2.281-13.05,5.05-28.869,6.152-35.152c1.102-6.283,2.962-16.961,4.132-23.728
		c1.17-6.767,3.424-19.685,5.008-28.708c1.585-9.022,3.43-19.568,4.102-23.435c2.714-15.63,3.617-20.034,5.037-24.56
		c8.744-27.872,28.137-41.177,73.424-50.375c32.997-6.702,56.111-8.346,108.679-7.731c18.367,0.215,34.449,0.49,35.738,0.611
		s6.298,0.385,11.132,0.585c12.192,0.506,37.555,2.017,40.607,2.419c1.389,0.183,2.443,0.541,2.343,0.796
		c-0.1,0.254-4.664,6.855-10.141,14.668l-9.96,14.206l-4.101-0.38c-14.412-1.335-23.513-2.108-32.516-2.762
		c-13.878-1.008-56.917-1.032-65.032-0.037c-32.223,3.952-46.712,13.972-54.399,37.62c-2.417,7.435-2.925,9.901-7.729,37.496
		c-2.272,13.05-5.028,28.869-6.126,35.152c-5.84,33.437-8.662,49.599-9.717,55.658c-0.645,3.706-1.68,9.638-2.3,13.182
		c-4.41,25.236-5.853,33.67-5.853,34.224c0,0.451-14.095,0.635-48.627,0.635C406.152,565.919,384.27,565.823,384.27,565.706z
		 M1029.01,564.601c0.275-1.195,2.319-12.887,8.27-47.309c1.142-6.606,2.706-15.57,3.477-19.92c0.77-4.35,2.476-14.237,3.792-21.97
		s2.895-16.829,3.51-20.213s2.442-13.797,4.06-23.142c2.962-17.101,14.696-84.256,17.199-98.426l1.345-7.616h121.839h121.839
		l7.26,1.342c29.811,5.509,49.003,20.61,56.551,44.496c2.646,8.374,2.977,11.007,2.962,23.588
		c-0.013,11.23-0.154,12.791-2.166,24.021c-3.311,18.476-12.256,69.639-21.82,124.791c-1.816,10.472-3.448,19.634-3.627,20.359
		l-0.326,1.318h-48.271c-45.695,0-48.271-0.055-48.271-1.032c0-1.014,0.737-5.314,9.662-56.384
		c7.704-44.086,8.348-47.75,12.965-73.82c4.071-22.983,4.515-26.233,4.526-33.102c0.01-5.894-0.277-8.787-1.268-12.791
		c-4.678-18.912-19.156-30.799-40.433-33.196c-3.671-0.414-18.651-0.578-42.547-0.467l-36.881,0.171l-1.597,9.081
		c-2.447,13.918-7.132,40.718-11.367,65.032c-2.105,12.084-5.926,33.966-8.491,48.627c-5.554,31.742-11.194,64.138-14.321,82.245
		c-0.494,2.862-0.898,5.3-0.898,5.419s-21.887,0.216-48.638,0.216h-48.639L1029.01,564.601z"/>
	<g>
		<path fill="#767373" d="M1701.631,1032.249l-3.672-78.744h-89.352l-38.352,78.744h-32.64l135.048-272.136h44.472l16.728,272.136
			H1701.631z M1689.391,785.409l-68.952,143.616h76.296L1689.391,785.409z"/>
		<path fill="#767373" d="M1804.444,978.392c-0.548,3.265-1.09,6.599-1.632,9.996c-0.548,3.404-0.816,6.732-0.816,9.996
			c0,3.812,0.612,7.141,1.836,9.996c1.224,2.856,4.01,4.284,8.364,4.284c5.164,0,9.518-0.676,13.056-2.04l0.816,19.584
			c-6.528,3.264-13.464,4.896-20.808,4.896c-10.608,0-18.972-1.906-25.092-5.713c-6.12-3.806-9.18-11.424-9.18-22.848
			c0-4.896,0.408-9.792,1.224-14.688c0.816-4.896,1.766-9.652,2.856-14.28l49.776-235.824h29.784L1804.444,978.392z"/>
		<path fill="#767373" d="M2012.112,966.968c-2.18,10.608-3.946,21.356-5.304,32.232c-1.364,10.882-2.314,21.898-2.856,33.048
			h-24.888v-35.088c-7.892,12.24-17.072,21.764-27.54,28.56c-10.474,6.796-23.192,10.2-38.148,10.2
			c-8.976,0-16.39-1.568-22.236-4.691c-5.853-3.124-10.404-7.274-13.668-12.444c-3.264-5.164-5.578-11.22-6.936-18.156
			c-1.364-6.936-2.04-14.344-2.04-22.236c0-16.861,2.448-34.067,7.344-51.611c4.896-17.544,12.24-33.456,22.032-47.736
			c9.792-14.28,21.962-25.972,36.516-35.088c14.548-9.11,31.48-13.668,50.796-13.668c4.622,0,9.448,0.548,14.484,1.632
			c5.03,1.09,8.632,2.314,10.812,3.672l19.992-93.84h29.784L2012.112,966.968z M1993.548,854.36
			c-5.304-1.083-10.27-1.632-14.892-1.632c-12.724,0-23.951,4.354-33.692,13.056c-9.741,8.708-17.997,19.38-24.76,32.028
			c-6.771,12.648-11.909,25.978-15.428,39.984c-3.519,14.013-5.272,26.183-5.272,36.517c0,4.079,0.402,8.434,1.218,13.056
			c0.816,4.628,2.167,8.842,4.067,12.647c1.894,3.812,4.533,7.007,7.924,9.589c3.385,2.588,7.79,3.876,13.209,3.876
			c8.938,0,16.932-2.448,23.977-7.345c7.044-4.896,13.139-11.016,18.29-18.359c5.151-7.345,9.416-15.435,12.808-24.276
			c3.385-8.836,5.891-17.34,7.516-25.5l17.072-78.744C2002.862,857.083,1998.852,855.451,1993.548,854.36z"/>
		<path fill="#767373" d="M2094.526,1032.249h-29.784l37.128-175.032h-26.928l4.896-23.256h56.712L2094.526,1032.249z
			 M2154.502,763.377c0,3.264-0.752,6.324-2.244,9.18c-1.498,2.856-3.468,5.374-5.916,7.548c-2.448,2.18-5.17,3.946-8.16,5.304
			c-2.996,1.364-5.986,2.04-8.976,2.04c-4.628,0-8.504-1.492-11.628-4.488c-3.13-2.99-4.692-6.796-4.692-11.424
			c0-3.264,0.746-6.324,2.244-9.18c1.492-2.856,3.398-5.368,5.712-7.548c2.308-2.174,4.96-3.94,7.956-5.304
			c2.99-1.358,5.979-2.04,8.976-2.04c4.622,0,8.568,1.499,11.832,4.488C2152.87,754.949,2154.502,758.755,2154.502,763.377z"/>
		<path fill="#767373" d="M2275.674,859.665c-4.628-1.358-9.524-2.04-14.688-2.04c-10.608,0-20.47,4.966-29.58,14.892
			c-9.116,9.932-15.574,23.46-19.38,40.596l-25.296,119.136h-29.784l42.432-198.288h25.296l-2.04,28.968
			c13.056-21.758,31.416-32.64,55.08-32.64c1.9,0,4.284,0.204,7.14,0.612c2.856,0.408,5.1,1.02,6.732,1.836L2275.674,859.665z"/>
		<path fill="#767373" d="M2321.368,1032.249h-29.784l37.128-175.032h-26.928l4.896-23.256h56.712L2321.368,1032.249z
			 M2381.344,763.377c0,3.264-0.752,6.324-2.244,9.18c-1.498,2.856-3.468,5.374-5.916,7.548c-2.448,2.18-5.17,3.946-8.16,5.304
			c-2.996,1.364-5.986,2.04-8.976,2.04c-4.628,0-8.504-1.492-11.628-4.488c-3.13-2.99-4.692-6.796-4.692-11.424
			c0-3.264,0.746-6.324,2.244-9.18c1.492-2.856,3.398-5.368,5.712-7.548c2.308-2.174,4.96-3.94,7.956-5.304
			c2.99-1.358,5.979-2.04,8.976-2.04c4.622,0,8.568,1.499,11.832,4.488C2379.712,754.949,2381.344,758.755,2381.344,763.377z"/>
		<path fill="#767373" d="M2532.708,966.968c-2.18,10.883-3.946,21.694-5.304,32.437c-1.364,10.748-2.314,21.694-2.856,32.844
			h-24.888v-35.088c-7.892,12.24-17.072,21.764-27.54,28.56c-10.474,6.796-23.192,10.2-38.148,10.2
			c-8.976,0-16.39-1.568-22.236-4.691c-5.853-3.124-10.404-7.274-13.668-12.444c-3.264-5.164-5.578-11.22-6.936-18.156
			c-1.364-6.936-2.04-14.344-2.04-22.236c0-16.861,2.448-34.067,7.344-51.611c4.896-17.544,12.24-33.456,22.032-47.736
			c9.792-14.28,21.962-25.972,36.516-35.088c14.548-9.11,31.48-13.668,50.796-13.668c8.702,0,18.085,0.682,28.152,2.04
			c10.06,1.364,18.902,3.404,26.52,6.12L2532.708,966.968z M2499.252,852.729c-12.788,0-24.072,4.354-33.864,13.056
			c-9.792,8.708-18.022,19.38-24.684,32.028c-6.668,12.648-11.768,25.978-15.3,39.984c-3.539,14.013-5.304,26.183-5.304,36.517
			c0,4.079,0.338,8.434,1.02,13.056c0.676,4.628,2.04,8.842,4.08,12.647c2.04,3.812,4.692,7.007,7.956,9.589
			c3.264,2.588,7.612,3.876,13.056,3.876c8.976,0,16.996-2.448,24.072-7.345c7.07-4.896,13.19-11.016,18.36-18.359
			c5.164-7.345,9.448-15.435,12.852-24.276c3.398-8.836,5.916-17.34,7.548-25.5l17.544-81.192
			C2518.154,854.093,2509.044,852.729,2499.252,852.729z"/>
		<path fill="#767373" d="M2662.45,925.76l53.856,106.488h-33.864l-50.592-104.856l-22.44,104.856h-29.784l62.016-290.496h29.784
			l-38.352,179.521l85.272-86.904h35.088L2662.45,925.76z"/>
	</g>
	<g>
		<circle fill="#EF2C30" cx="2995.758" cy="884.873" r="150"/>
		<path fill="none" stroke="#FFFFFF" stroke-width="50" d="M2995.758,809.873c41.421,0,75,33.579,75,75c0,41.421-33.579,75-75,75
			c-41.421,0-75-33.579-75-75"/>
	</g>
</g>
</svg>
